<mxfile host="app.diagrams.net" agent="Mozilla/5.0 (Windows NT 10.0; Win64; x64) AppleWebKit/537.36 (KHTML, like Gecko) Chrome/133.0.0.0 Safari/537.36 Edg/133.0.0.0" version="26.0.16">
  <diagram name="Page-1" id="UNj7ay86Tcx_dJe4Rb6P">
    <mxGraphModel dx="673" dy="359" grid="1" gridSize="10" guides="1" tooltips="1" connect="1" arrows="1" fold="1" page="1" pageScale="1" pageWidth="850" pageHeight="1100" math="0" shadow="0">
      <root>
        <mxCell id="0" />
        <mxCell id="1" parent="0" />
        <mxCell id="utHbmbWf0p_RrXW_z4vJ-51" value="&lt;b&gt;Điểm danh bằng mã QR&lt;/b&gt;" style="shape=umlFrame;whiteSpace=wrap;html=1;pointerEvents=0;width=176;height=24;swimlaneFillColor=default;" vertex="1" parent="1">
          <mxGeometry x="94" y="50" width="556" height="1030" as="geometry" />
        </mxCell>
        <mxCell id="utHbmbWf0p_RrXW_z4vJ-2" value=":Sinh viên" style="shape=umlLifeline;perimeter=lifelinePerimeter;whiteSpace=wrap;html=1;container=1;dropTarget=0;collapsible=0;recursiveResize=0;outlineConnect=0;portConstraint=eastwest;newEdgeStyle={&quot;curved&quot;:0,&quot;rounded&quot;:0};" vertex="1" parent="1">
          <mxGeometry x="150" y="100" width="100" height="980" as="geometry" />
        </mxCell>
        <mxCell id="utHbmbWf0p_RrXW_z4vJ-4" value="" style="html=1;points=[[0,0,0,0,5],[0,1,0,0,-5],[1,0,0,0,5],[1,1,0,0,-5]];perimeter=orthogonalPerimeter;outlineConnect=0;targetShapes=umlLifeline;portConstraint=eastwest;newEdgeStyle={&quot;curved&quot;:0,&quot;rounded&quot;:0};" vertex="1" parent="utHbmbWf0p_RrXW_z4vJ-2">
          <mxGeometry x="45" y="80" width="10" height="870" as="geometry" />
        </mxCell>
        <mxCell id="utHbmbWf0p_RrXW_z4vJ-3" value=":FacePlus" style="shape=umlLifeline;perimeter=lifelinePerimeter;whiteSpace=wrap;html=1;container=1;dropTarget=0;collapsible=0;recursiveResize=0;outlineConnect=0;portConstraint=eastwest;newEdgeStyle={&quot;curved&quot;:0,&quot;rounded&quot;:0};" vertex="1" parent="1">
          <mxGeometry x="425" y="100" width="100" height="980" as="geometry" />
        </mxCell>
        <mxCell id="utHbmbWf0p_RrXW_z4vJ-5" value="" style="edgeStyle=elbowEdgeStyle;fontSize=12;html=1;endArrow=blockThin;endFill=1;rounded=0;exitX=0.928;exitY=-0.004;exitDx=0;exitDy=0;exitPerimeter=0;" edge="1" parent="1">
          <mxGeometry width="160" relative="1" as="geometry">
            <mxPoint x="205.27999999999997" y="179.88" as="sourcePoint" />
            <mxPoint x="471" y="180" as="targetPoint" />
          </mxGeometry>
        </mxCell>
        <mxCell id="utHbmbWf0p_RrXW_z4vJ-7" value="3.1. Mở chức năng quét QR" style="edgeLabel;html=1;align=center;verticalAlign=middle;resizable=0;points=[];" vertex="1" connectable="0" parent="utHbmbWf0p_RrXW_z4vJ-5">
          <mxGeometry x="-0.1136" relative="1" as="geometry">
            <mxPoint y="-10" as="offset" />
          </mxGeometry>
        </mxCell>
        <mxCell id="utHbmbWf0p_RrXW_z4vJ-6" value="" style="html=1;points=[[0,0,0,0,5],[0,1,0,0,-5],[1,0,0,0,5],[1,1,0,0,-5]];perimeter=orthogonalPerimeter;outlineConnect=0;targetShapes=umlLifeline;portConstraint=eastwest;newEdgeStyle={&quot;curved&quot;:0,&quot;rounded&quot;:0};" vertex="1" parent="1">
          <mxGeometry x="470" y="180" width="10" height="30" as="geometry" />
        </mxCell>
        <mxCell id="utHbmbWf0p_RrXW_z4vJ-8" value="3.1. Hiển thị giao diện quét QR" style="html=1;verticalAlign=bottom;endArrow=open;dashed=1;endSize=8;curved=0;rounded=0;" edge="1" parent="1">
          <mxGeometry relative="1" as="geometry">
            <mxPoint x="470" y="210" as="sourcePoint" />
            <mxPoint x="205" y="210" as="targetPoint" />
          </mxGeometry>
        </mxCell>
        <mxCell id="utHbmbWf0p_RrXW_z4vJ-9" value="&lt;b&gt;opt&lt;/b&gt;" style="shape=umlFrame;whiteSpace=wrap;html=1;pointerEvents=0;width=50;height=20;" vertex="1" parent="1">
          <mxGeometry x="170" y="240" width="340" height="90" as="geometry" />
        </mxCell>
        <mxCell id="utHbmbWf0p_RrXW_z4vJ-11" value="" style="html=1;points=[[0,0,0,0,5],[0,1,0,0,-5],[1,0,0,0,5],[1,1,0,0,-5]];perimeter=orthogonalPerimeter;outlineConnect=0;targetShapes=umlLifeline;portConstraint=eastwest;newEdgeStyle={&quot;curved&quot;:0,&quot;rounded&quot;:0};" vertex="1" parent="1">
          <mxGeometry x="470" y="280" width="10" height="30" as="geometry" />
        </mxCell>
        <mxCell id="utHbmbWf0p_RrXW_z4vJ-13" value="" style="edgeStyle=elbowEdgeStyle;fontSize=12;html=1;endArrow=none;endFill=1;rounded=0;exitX=0.928;exitY=-0.004;exitDx=0;exitDy=0;exitPerimeter=0;startFill=1;startArrow=blockThin;" edge="1" parent="1">
          <mxGeometry width="160" relative="1" as="geometry">
            <mxPoint x="204.27999999999997" y="280" as="sourcePoint" />
            <mxPoint x="470" y="280.12" as="targetPoint" />
          </mxGeometry>
        </mxCell>
        <mxCell id="utHbmbWf0p_RrXW_z4vJ-14" value="Gửi thông báo lỗi camera" style="edgeLabel;html=1;align=center;verticalAlign=middle;resizable=0;points=[];" vertex="1" connectable="0" parent="utHbmbWf0p_RrXW_z4vJ-13">
          <mxGeometry x="-0.1136" relative="1" as="geometry">
            <mxPoint x="22" y="-10" as="offset" />
          </mxGeometry>
        </mxCell>
        <mxCell id="utHbmbWf0p_RrXW_z4vJ-15" value="" style="html=1;points=[[0,0,0,0,5],[0,1,0,0,-5],[1,0,0,0,5],[1,1,0,0,-5]];perimeter=orthogonalPerimeter;outlineConnect=0;targetShapes=umlLifeline;portConstraint=eastwest;newEdgeStyle={&quot;curved&quot;:0,&quot;rounded&quot;:0};" vertex="1" parent="1">
          <mxGeometry x="470" y="360" width="10" height="30" as="geometry" />
        </mxCell>
        <mxCell id="utHbmbWf0p_RrXW_z4vJ-16" value="" style="edgeStyle=elbowEdgeStyle;fontSize=12;html=1;endArrow=blockThin;endFill=1;rounded=0;exitX=0.928;exitY=-0.004;exitDx=0;exitDy=0;exitPerimeter=0;" edge="1" parent="1">
          <mxGeometry width="160" relative="1" as="geometry">
            <mxPoint x="204.27999999999997" y="360" as="sourcePoint" />
            <mxPoint x="470" y="360.12" as="targetPoint" />
          </mxGeometry>
        </mxCell>
        <mxCell id="utHbmbWf0p_RrXW_z4vJ-17" value="3.2. Quét mã QR" style="edgeLabel;html=1;align=center;verticalAlign=middle;resizable=0;points=[];" vertex="1" connectable="0" parent="utHbmbWf0p_RrXW_z4vJ-16">
          <mxGeometry x="-0.1136" relative="1" as="geometry">
            <mxPoint x="18" y="-10" as="offset" />
          </mxGeometry>
        </mxCell>
        <mxCell id="utHbmbWf0p_RrXW_z4vJ-18" value="" style="edgeStyle=elbowEdgeStyle;fontSize=12;html=1;endArrow=blockThin;endFill=1;rounded=0;entryX=1;entryY=1;entryDx=0;entryDy=-5;entryPerimeter=0;" edge="1" parent="1" source="utHbmbWf0p_RrXW_z4vJ-15" target="utHbmbWf0p_RrXW_z4vJ-15">
          <mxGeometry width="160" relative="1" as="geometry">
            <mxPoint x="380" y="390" as="sourcePoint" />
            <mxPoint x="646" y="390" as="targetPoint" />
          </mxGeometry>
        </mxCell>
        <mxCell id="utHbmbWf0p_RrXW_z4vJ-20" value="&lt;font style=&quot;font-size: 11px;&quot;&gt;Kiểm tra tính hợp lệ&lt;/font&gt;" style="text;html=1;align=center;verticalAlign=middle;resizable=0;points=[];autosize=1;strokeColor=none;fillColor=none;" vertex="1" parent="1">
          <mxGeometry x="491" y="360" width="120" height="30" as="geometry" />
        </mxCell>
        <mxCell id="utHbmbWf0p_RrXW_z4vJ-21" value="&lt;b&gt;opt&lt;/b&gt;" style="shape=umlFrame;whiteSpace=wrap;html=1;pointerEvents=0;width=50;height=20;" vertex="1" parent="1">
          <mxGeometry x="170" y="400" width="420" height="180" as="geometry" />
        </mxCell>
        <mxCell id="utHbmbWf0p_RrXW_z4vJ-22" value="" style="html=1;points=[[0,0,0,0,5],[0,1,0,0,-5],[1,0,0,0,5],[1,1,0,0,-5]];perimeter=orthogonalPerimeter;outlineConnect=0;targetShapes=umlLifeline;portConstraint=eastwest;newEdgeStyle={&quot;curved&quot;:0,&quot;rounded&quot;:0};" vertex="1" parent="1">
          <mxGeometry x="470" y="440" width="10" height="30" as="geometry" />
        </mxCell>
        <mxCell id="utHbmbWf0p_RrXW_z4vJ-23" value="3.3.1. Thông báo QR hết hạn" style="html=1;verticalAlign=bottom;endArrow=blockThin;endSize=8;curved=0;rounded=0;endFill=1;" edge="1" parent="1">
          <mxGeometry relative="1" as="geometry">
            <mxPoint x="470" y="440" as="sourcePoint" />
            <mxPoint x="205" y="440" as="targetPoint" />
          </mxGeometry>
        </mxCell>
        <mxCell id="utHbmbWf0p_RrXW_z4vJ-24" value="" style="html=1;verticalAlign=bottom;endArrow=none;dashed=1;endSize=8;curved=0;rounded=0;exitX=1;exitY=0.5;exitDx=0;exitDy=0;exitPerimeter=0;startFill=0;" edge="1" parent="1" source="utHbmbWf0p_RrXW_z4vJ-21">
          <mxGeometry relative="1" as="geometry">
            <mxPoint x="510" y="490.38" as="sourcePoint" />
            <mxPoint x="170" y="490" as="targetPoint" />
            <Array as="points">
              <mxPoint x="360" y="490.22" />
            </Array>
          </mxGeometry>
        </mxCell>
        <mxCell id="utHbmbWf0p_RrXW_z4vJ-25" value="" style="html=1;points=[[0,0,0,0,5],[0,1,0,0,-5],[1,0,0,0,5],[1,1,0,0,-5]];perimeter=orthogonalPerimeter;outlineConnect=0;targetShapes=umlLifeline;portConstraint=eastwest;newEdgeStyle={&quot;curved&quot;:0,&quot;rounded&quot;:0};" vertex="1" parent="1">
          <mxGeometry x="470" y="530" width="10" height="30" as="geometry" />
        </mxCell>
        <mxCell id="utHbmbWf0p_RrXW_z4vJ-26" value="3.3.1. Thông báo SV không thuộc lớp" style="html=1;verticalAlign=bottom;endArrow=blockThin;endSize=8;curved=0;rounded=0;endFill=1;" edge="1" parent="1">
          <mxGeometry relative="1" as="geometry">
            <mxPoint x="470" y="530" as="sourcePoint" />
            <mxPoint x="205" y="530" as="targetPoint" />
          </mxGeometry>
        </mxCell>
        <mxCell id="utHbmbWf0p_RrXW_z4vJ-28" value="" style="edgeStyle=elbowEdgeStyle;fontSize=12;html=1;endArrow=blockThin;endFill=1;rounded=0;entryX=1;entryY=1;entryDx=0;entryDy=-5;entryPerimeter=0;" edge="1" parent="1">
          <mxGeometry width="160" relative="1" as="geometry">
            <mxPoint x="480" y="537.5" as="sourcePoint" />
            <mxPoint x="480" y="552.5" as="targetPoint" />
            <Array as="points">
              <mxPoint x="500" y="567.5" />
            </Array>
          </mxGeometry>
        </mxCell>
        <mxCell id="utHbmbWf0p_RrXW_z4vJ-29" value="&lt;font style=&quot;font-size: 11px;&quot;&gt;Hủy quá trình&amp;nbsp;&lt;/font&gt;&lt;div&gt;&lt;font style=&quot;font-size: 11px;&quot;&gt;điểm danh&lt;/font&gt;&lt;/div&gt;" style="text;html=1;align=center;verticalAlign=middle;resizable=0;points=[];autosize=1;strokeColor=none;fillColor=none;" vertex="1" parent="1">
          <mxGeometry x="495" y="525" width="90" height="40" as="geometry" />
        </mxCell>
        <mxCell id="utHbmbWf0p_RrXW_z4vJ-30" value="" style="html=1;points=[[0,0,0,0,5],[0,1,0,0,-5],[1,0,0,0,5],[1,1,0,0,-5]];perimeter=orthogonalPerimeter;outlineConnect=0;targetShapes=umlLifeline;portConstraint=eastwest;newEdgeStyle={&quot;curved&quot;:0,&quot;rounded&quot;:0};" vertex="1" parent="1">
          <mxGeometry x="470" y="610" width="10" height="30" as="geometry" />
        </mxCell>
        <mxCell id="utHbmbWf0p_RrXW_z4vJ-31" value="3.3.2. Hiển thị màn hình thông báo QR hợp lệ" style="html=1;verticalAlign=bottom;endArrow=blockThin;endSize=8;curved=0;rounded=0;endFill=1;" edge="1" parent="1">
          <mxGeometry relative="1" as="geometry">
            <mxPoint x="470" y="610" as="sourcePoint" />
            <mxPoint x="205" y="610" as="targetPoint" />
          </mxGeometry>
        </mxCell>
        <mxCell id="utHbmbWf0p_RrXW_z4vJ-32" value="&lt;b&gt;opt&lt;/b&gt;" style="shape=umlFrame;whiteSpace=wrap;html=1;pointerEvents=0;width=50;height=20;" vertex="1" parent="1">
          <mxGeometry x="170" y="660" width="420" height="90" as="geometry" />
        </mxCell>
        <mxCell id="utHbmbWf0p_RrXW_z4vJ-33" value="" style="html=1;points=[[0,0,0,0,5],[0,1,0,0,-5],[1,0,0,0,5],[1,1,0,0,-5]];perimeter=orthogonalPerimeter;outlineConnect=0;targetShapes=umlLifeline;portConstraint=eastwest;newEdgeStyle={&quot;curved&quot;:0,&quot;rounded&quot;:0};" vertex="1" parent="1">
          <mxGeometry x="470" y="700" width="10" height="30" as="geometry" />
        </mxCell>
        <mxCell id="utHbmbWf0p_RrXW_z4vJ-34" value="Thông báo GPS không hoạt động" style="html=1;verticalAlign=bottom;endArrow=blockThin;endSize=8;curved=0;rounded=0;endFill=1;" edge="1" parent="1">
          <mxGeometry relative="1" as="geometry">
            <mxPoint x="470" y="700" as="sourcePoint" />
            <mxPoint x="205" y="700" as="targetPoint" />
          </mxGeometry>
        </mxCell>
        <mxCell id="utHbmbWf0p_RrXW_z4vJ-37" value="&lt;b&gt;opt&lt;/b&gt;" style="shape=umlFrame;whiteSpace=wrap;html=1;pointerEvents=0;width=50;height=20;" vertex="1" parent="1">
          <mxGeometry x="170" y="790" width="420" height="90" as="geometry" />
        </mxCell>
        <mxCell id="utHbmbWf0p_RrXW_z4vJ-38" value="" style="html=1;points=[[0,0,0,0,5],[0,1,0,0,-5],[1,0,0,0,5],[1,1,0,0,-5]];perimeter=orthogonalPerimeter;outlineConnect=0;targetShapes=umlLifeline;portConstraint=eastwest;newEdgeStyle={&quot;curved&quot;:0,&quot;rounded&quot;:0};" vertex="1" parent="1">
          <mxGeometry x="470" y="830" width="10" height="30" as="geometry" />
        </mxCell>
        <mxCell id="utHbmbWf0p_RrXW_z4vJ-39" value="3.4.1. Thông báo vị trí không hợp lệ" style="html=1;verticalAlign=bottom;endArrow=blockThin;endSize=8;curved=0;rounded=0;endFill=1;" edge="1" parent="1">
          <mxGeometry relative="1" as="geometry">
            <mxPoint x="470" y="830" as="sourcePoint" />
            <mxPoint x="205" y="830" as="targetPoint" />
          </mxGeometry>
        </mxCell>
        <mxCell id="utHbmbWf0p_RrXW_z4vJ-40" value="" style="edgeStyle=elbowEdgeStyle;fontSize=12;html=1;endArrow=blockThin;endFill=1;rounded=0;entryX=1;entryY=1;entryDx=0;entryDy=-5;entryPerimeter=0;" edge="1" parent="1">
          <mxGeometry width="160" relative="1" as="geometry">
            <mxPoint x="480" y="837.5" as="sourcePoint" />
            <mxPoint x="480" y="852.5" as="targetPoint" />
            <Array as="points">
              <mxPoint x="500" y="867.5" />
            </Array>
          </mxGeometry>
        </mxCell>
        <mxCell id="utHbmbWf0p_RrXW_z4vJ-41" value="&lt;span style=&quot;font-size: 11px;&quot;&gt;Quay lại bước 2&lt;/span&gt;" style="text;html=1;align=center;verticalAlign=middle;resizable=0;points=[];autosize=1;strokeColor=none;fillColor=none;" vertex="1" parent="1">
          <mxGeometry x="495" y="830" width="100" height="30" as="geometry" />
        </mxCell>
        <mxCell id="utHbmbWf0p_RrXW_z4vJ-42" value="" style="html=1;points=[[0,0,0,0,5],[0,1,0,0,-5],[1,0,0,0,5],[1,1,0,0,-5]];perimeter=orthogonalPerimeter;outlineConnect=0;targetShapes=umlLifeline;portConstraint=eastwest;newEdgeStyle={&quot;curved&quot;:0,&quot;rounded&quot;:0};" vertex="1" parent="1">
          <mxGeometry x="470" y="920" width="10" height="60" as="geometry" />
        </mxCell>
        <mxCell id="utHbmbWf0p_RrXW_z4vJ-43" value="3.4.2. Thông báo xác nhận GPS thành công" style="html=1;verticalAlign=bottom;endArrow=blockThin;endSize=8;curved=0;rounded=0;endFill=1;" edge="1" parent="1">
          <mxGeometry relative="1" as="geometry">
            <mxPoint x="470" y="920" as="sourcePoint" />
            <mxPoint x="205" y="920" as="targetPoint" />
          </mxGeometry>
        </mxCell>
        <mxCell id="utHbmbWf0p_RrXW_z4vJ-44" value="" style="edgeStyle=elbowEdgeStyle;fontSize=12;html=1;endArrow=blockThin;endFill=1;rounded=0;entryX=1;entryY=1;entryDx=0;entryDy=-5;entryPerimeter=0;" edge="1" parent="1">
          <mxGeometry width="160" relative="1" as="geometry">
            <mxPoint x="480" y="942.5" as="sourcePoint" />
            <mxPoint x="480" y="957.5" as="targetPoint" />
            <Array as="points">
              <mxPoint x="500" y="972.5" />
            </Array>
          </mxGeometry>
        </mxCell>
        <mxCell id="utHbmbWf0p_RrXW_z4vJ-45" value="&lt;span style=&quot;font-size: 11px;&quot;&gt;Ghi nhận điểm danh&lt;/span&gt;" style="text;html=1;align=center;verticalAlign=middle;resizable=0;points=[];autosize=1;strokeColor=none;fillColor=none;" vertex="1" parent="1">
          <mxGeometry x="494" y="935" width="120" height="30" as="geometry" />
        </mxCell>
        <mxCell id="utHbmbWf0p_RrXW_z4vJ-46" value="3.6. Hiển thị thông báo điểm danh thành công" style="html=1;verticalAlign=bottom;endArrow=blockThin;endSize=8;curved=0;rounded=0;endFill=1;" edge="1" parent="1">
          <mxGeometry relative="1" as="geometry">
            <mxPoint x="470" y="980" as="sourcePoint" />
            <mxPoint x="205" y="980" as="targetPoint" />
          </mxGeometry>
        </mxCell>
        <mxCell id="utHbmbWf0p_RrXW_z4vJ-47" value="&lt;font style=&quot;font-size: 11px;&quot;&gt;Kiểm tra tính hợp lệ&lt;/font&gt;" style="text;html=1;align=center;verticalAlign=middle;resizable=0;points=[];autosize=1;strokeColor=none;fillColor=none;fontStyle=1" vertex="1" parent="1">
          <mxGeometry x="215" y="396" width="120" height="30" as="geometry" />
        </mxCell>
        <mxCell id="utHbmbWf0p_RrXW_z4vJ-48" value="&lt;font style=&quot;font-size: 11px;&quot;&gt;Lỗi GPS&lt;/font&gt;" style="text;html=1;align=center;verticalAlign=middle;resizable=0;points=[];autosize=1;strokeColor=none;fillColor=none;fontStyle=1" vertex="1" parent="1">
          <mxGeometry x="214" y="656" width="60" height="30" as="geometry" />
        </mxCell>
        <mxCell id="utHbmbWf0p_RrXW_z4vJ-49" value="&lt;font style=&quot;font-size: 11px;&quot;&gt;Lỗi camera&lt;/font&gt;" style="text;html=1;align=center;verticalAlign=middle;resizable=0;points=[];autosize=1;strokeColor=none;fillColor=none;fontStyle=1" vertex="1" parent="1">
          <mxGeometry x="211" y="236" width="80" height="30" as="geometry" />
        </mxCell>
        <mxCell id="utHbmbWf0p_RrXW_z4vJ-50" value="&lt;font style=&quot;font-size: 11px;&quot;&gt;Kiểm tra vị trí&lt;/font&gt;" style="text;html=1;align=center;verticalAlign=middle;resizable=0;points=[];autosize=1;strokeColor=none;fillColor=none;fontStyle=1" vertex="1" parent="1">
          <mxGeometry x="212" y="785" width="90" height="30" as="geometry" />
        </mxCell>
      </root>
    </mxGraphModel>
  </diagram>
</mxfile>
